
<svg width="1920" height="1080" xmlns="http://www.w3.org/2000/svg">
  <rect width="1920" height="1080" fill="#101316"/>
  <rect x="0" y="0" width="1920" height="48" fill="#191d23" stroke="#000" stroke-opacity="0.35"/>
  <text x="20" y="30" font-size="18" font-family="Inter,Segoe UI,Arial" fill="#e7edf5">DAWn — Digital Audio Workstation (Desktop Build)</text>

  <!-- Channel Rack -->
  <g transform="translate(16,88)">
    <rect width="300" height="976" rx="8" fill="#232a33" stroke="#394655"/>
    <rect width="300" height="36" rx="8" fill="#2b3440"/>
    <text x="12" y="23" font-size="14" font-family="Inter,Segoe UI,Arial" fill="#e7edf5">Channel Rack</text>
    <!-- Items -->
    <g transform="translate(12,56)">
      <g transform="translate(0,0)"><rect width="276" height="36" rx="8" fill="#202730" stroke="#394655" opacity="0.35"/><circle cx="14" cy="18" r="5" fill="#f0a43a"/><text x="30" y="22" font-size="13" font-family="Inter,Segoe UI,Arial" fill="#e7edf5">Kick</text><text x="254" y="22" font-size="12" font-family="Inter,Segoe UI,Arial" fill="#a8b3c2">K</text></g>
<g transform="translate(0,44)"><rect width="276" height="36" rx="8" fill="#202730" stroke="#394655" opacity="0.35"/><circle cx="14" cy="18" r="5" fill="#9c7ff5"/><text x="30" y="22" font-size="13" font-family="Inter,Segoe UI,Arial" fill="#e7edf5">Snare</text><text x="254" y="22" font-size="12" font-family="Inter,Segoe UI,Arial" fill="#a8b3c2">S</text></g>
<g transform="translate(0,88)"><rect width="276" height="36" rx="8" fill="#202730" stroke="#394655" opacity="0.35"/><circle cx="14" cy="18" r="5" fill="#2ec9a8"/><text x="30" y="22" font-size="13" font-family="Inter,Segoe UI,Arial" fill="#e7edf5">Hat</text><text x="254" y="22" font-size="12" font-family="Inter,Segoe UI,Arial" fill="#a8b3c2">H</text></g>
<g transform="translate(0,132)"><rect width="276" height="36" rx="8" fill="#202730" stroke="#394655" opacity="0.35"/><circle cx="14" cy="18" r="5" fill="#3fe36f"/><text x="30" y="22" font-size="13" font-family="Inter,Segoe UI,Arial" fill="#e7edf5">Bass</text><text x="254" y="22" font-size="12" font-family="Inter,Segoe UI,Arial" fill="#a8b3c2">B</text></g>
<g transform="translate(0,176)"><rect width="276" height="36" rx="8" fill="#202730" stroke="#394655" opacity="0.35"/><circle cx="14" cy="18" r="5" fill="#6fa8ff"/><text x="30" y="22" font-size="13" font-family="Inter,Segoe UI,Arial" fill="#e7edf5">Keys</text><text x="254" y="22" font-size="12" font-family="Inter,Segoe UI,Arial" fill="#a8b3c2">K</text></g>
    </g>
  </g>

  <!-- Timeline -->
  <g transform="translate(332,88)">
    <rect width="1228" height="280" rx="8" fill="#232a33" stroke="#394655"/>
    <rect width="1228" height="36" rx="8" fill="#2b3440"/>
    <text x="12" y="23" font-size="14" font-family="Inter,Segoe UI,Arial" fill="#e7edf5">Timeline</text>
    <!-- Tabs -->
    <g transform="translate(1030,6)">
      <rect width="160" height="24" rx="6" fill="#2b3440" stroke="#394655" opacity="0.35"/>
      <text x="10" y="17" font-size="12" font-family="Inter,Segoe UI,Arial" fill="#e7edf5">Piano Coll ▼</text>
    </g>
    <!-- Ruler -->
    <g transform="translate(12,48)" fill="#a8b3c2" font-family="Inter,Segoe UI,Arial" font-size="12">
      <text x="0" y="12">1</text>
<text x="72" y="12">2</text>
<text x="144" y="12">3</text>
<text x="216" y="12">4</text>
<text x="288" y="12">5</text>
<text x="360" y="12">6</text>
<text x="432" y="12">7</text>
<text x="504" y="12">8</text>
<text x="576" y="12">9</text>
<text x="648" y="12">10</text>
<text x="720" y="12">11</text>
<text x="792" y="12">12</text>
<text x="864" y="12">13</text>
<text x="936" y="12">14</text>
<text x="1008" y="12">15</text>
<text x="1080" y="12">16</text>
    </g>
    <!-- Clips -->
    <g transform="translate(12,84)">
      <rect width="180" height="24" rx="6" fill="#9c7ff5"/>
      <rect x="188" width="260" height="24" rx="6" fill="#f0a43a"/>
      <rect x="452" width="200" height="24" rx="6" fill="#2ec9a8"/>
    </g>
    <!-- Track Row -->
    <g transform="translate(12,124)">
      <rect width="120" height="120" fill="#2b3440"/>
      <circle cx="18" cy="20" r="6" fill="#f0a43a"/>
      <text x="34" y="24" font-size="13" font-family="Inter,Segoe UI,Arial" fill="#e7edf5">Track 1</text>
      <rect x="124" width="1080" height="120" fill="#14181d"/>
    </g>
  </g>

  <!-- Piano Roll -->
  <g transform="translate(332,384)">
    <rect width="1228" height="452" rx="8" fill="#232a33" stroke="#394655"/>
    <rect width="1228" height="36" rx="8" fill="#2b3440"/>
    <text x="12" y="23" font-size="14" font-family="Inter,Segoe UI,Arial" fill="#e7edf5">Piano Roll</text>
    <rect x="12" y="48" width="1204" height="220" fill="#1a1f27" stroke="#000" stroke-opacity="0.12"/>
    <rect x="24" y="60" width="60" height="18" rx="4" fill="#6fa8ff" stroke="#000" stroke-opacity="0.12"/><rect x="24" y="74" width="60" height="4" fill="#ffffff" opacity="0.25"/><rect x="24" y="63" width="3" height="12" fill="#000" opacity="0.22"/>
<rect x="134" y="78" width="80" height="18" rx="4" fill="#6fa8ff" stroke="#000" stroke-opacity="0.12"/><rect x="134" y="92" width="80" height="4" fill="#ffffff" opacity="0.25"/><rect x="134" y="81" width="3" height="12" fill="#000" opacity="0.22"/>
<rect x="244" y="96" width="100" height="18" rx="4" fill="#6fa8ff" stroke="#000" stroke-opacity="0.12"/><rect x="244" y="110" width="100" height="4" fill="#ffffff" opacity="0.25"/><rect x="244" y="99" width="3" height="12" fill="#000" opacity="0.22"/>
<rect x="354" y="114" width="60" height="18" rx="4" fill="#6fa8ff" stroke="#000" stroke-opacity="0.12"/><rect x="354" y="128" width="60" height="4" fill="#ffffff" opacity="0.25"/><rect x="354" y="117" width="3" height="12" fill="#000" opacity="0.22"/>
<rect x="464" y="132" width="80" height="18" rx="4" fill="#6fa8ff" stroke="#000" stroke-opacity="0.12"/><rect x="464" y="146" width="80" height="4" fill="#ffffff" opacity="0.25"/><rect x="464" y="135" width="3" height="12" fill="#000" opacity="0.22"/>
<rect x="574" y="150" width="100" height="18" rx="4" fill="#6fa8ff" stroke="#000" stroke-opacity="0.12"/><rect x="574" y="164" width="100" height="4" fill="#ffffff" opacity="0.25"/><rect x="574" y="153" width="3" height="12" fill="#000" opacity="0.22"/>
<rect x="684" y="168" width="60" height="18" rx="4" fill="#6fa8ff" stroke="#000" stroke-opacity="0.12"/><rect x="684" y="182" width="60" height="4" fill="#ffffff" opacity="0.25"/><rect x="684" y="171" width="3" height="12" fill="#000" opacity="0.22"/>
<rect x="794" y="186" width="80" height="18" rx="4" fill="#6fa8ff" stroke="#000" stroke-opacity="0.12"/><rect x="794" y="200" width="80" height="4" fill="#ffffff" opacity="0.25"/><rect x="794" y="189" width="3" height="12" fill="#000" opacity="0.22"/>
    <!-- Velocity -->
    <g transform="translate(12,276)">
      <rect width="1204" height="56" fill="#0f1317" stroke="#000" stroke-opacity="0.2"/>
      <rect x="16" y="38" width="10" height="12" fill="#2ec9a8"/>
<rect x="110" y="28" width="10" height="22" fill="#2ec9a8"/>
<rect x="204" y="20" width="10" height="30" fill="#2ec9a8"/>
<rect x="298" y="32" width="10" height="18" fill="#2ec9a8"/>
<rect x="392" y="22" width="10" height="28" fill="#2ec9a8"/>
<rect x="486" y="16" width="10" height="34" fill="#2ec9a8"/>
<rect x="580" y="34" width="10" height="16" fill="#2ec9a8"/>
<rect x="674" y="24" width="10" height="26" fill="#2ec9a8"/>
    </g>
  </g>

  <!-- AI Panel -->
  <g transform="translate(1560,88)">
    <rect width="344" height="320" rx="8" fill="#232a33" stroke="#394655"/>
    <rect width="344" height="36" rx="8" fill="#2b3440"/>
    <text x="12" y="23" font-size="14" font-family="Inter,Segoe UI,Arial" fill="#e7edf5">AI Assistant</text>
    <g transform="translate(12,56)">

<g>
  <rect width="320" height="36" rx="8" fill="#2b3440"/>
  <rect x="8" y="10" width="16" height="16" rx="4" fill="#e7edf5"/>
  <text x="32" y="24" font-size="13" font-family="Inter,Segoe UI,Arial" fill="#e7edf5">Generate Chords</text>

  <rect y="44" width="320" height="36" rx="8" fill="#2b3440"/>
  <rect x="8" y="54" width="16" height="16" rx="4" fill="#e7edf5"/>
  <text x="32" y="68" font-size="13" font-family="Inter,Segoe UI,Arial" fill="#e7edf5">Create Drum Fill</text>

  <rect y="88" width="320" height="36" rx="8" fill="#2b3440"/>
  <rect x="8" y="98" width="16" height="16" rx="4" fill="#e7edf5"/>
  <text x="32" y="112" font-size="13" font-family="Inter,Segoe UI,Arial" fill="#e7edf5">Add Bassline</text>

  <g transform="translate(0,136)">
    <rect width="320" height="132" rx="12" fill="#232a33" stroke="#394655" opacity="0.45"/>
    <text x="16" y="30" font-size="15" font-family="Inter,Segoe UI,Arial" fill="#e7edf5">Add a Bassline</text>
    <text x="16" y="52" font-size="12" font-family="Inter,Segoe UI,Arial" fill="#a8b3c2">Generate a bass pattern based on selected chords.</text>
    <rect x="16" y="72" width="64" height="28" rx="6" fill="#2ec9a8"/>
    <text x="38" y="90" font-size="13" font-family="Inter,Segoe UI,Arial" fill="#101316">Run</text>
  </g>
</g>

    </g>
  </g>

  <!-- Mixer -->
  <g transform="translate(1560,424)">
    <rect width="344" height="640" rx="8" fill="#232a33" stroke="#394655"/>
    <rect width="344" height="36" rx="8" fill="#2b3440"/>
    <text x="12" y="23" font-size="14" font-family="Inter,Segoe UI,Arial" fill="#e7edf5">Mixer</text>
    <g transform="translate(12,56)">
      <g transform="translate(0,0)"><rect width="48" height="120" rx="8" fill="#232a33" stroke="#394655"/><rect x="8" y="8" width="18" height="90" fill="#1f2630" stroke="#000" stroke-opacity="0.2"/><rect x="30" y="8" width="4" height="90" fill="#22bb22"/><text x="18" y="112" font-size="12" font-family="Inter,Segoe UI,Arial" fill="#a8b3c2">1</text></g>
<g transform="translate(56,0)"><rect width="48" height="120" rx="8" fill="#232a33" stroke="#394655"/><rect x="8" y="8" width="18" height="90" fill="#1f2630" stroke="#000" stroke-opacity="0.2"/><rect x="30" y="8" width="4" height="90" fill="#22bb22"/><text x="18" y="112" font-size="12" font-family="Inter,Segoe UI,Arial" fill="#a8b3c2">2</text></g>
<g transform="translate(112,0)"><rect width="48" height="120" rx="8" fill="#232a33" stroke="#394655"/><rect x="8" y="8" width="18" height="90" fill="#1f2630" stroke="#000" stroke-opacity="0.2"/><rect x="30" y="8" width="4" height="90" fill="#22bb22"/><text x="18" y="112" font-size="12" font-family="Inter,Segoe UI,Arial" fill="#a8b3c2">3</text></g>
<g transform="translate(168,0)"><rect width="48" height="120" rx="8" fill="#232a33" stroke="#394655"/><rect x="8" y="8" width="18" height="90" fill="#1f2630" stroke="#000" stroke-opacity="0.2"/><rect x="30" y="8" width="4" height="90" fill="#22bb22"/><text x="18" y="112" font-size="12" font-family="Inter,Segoe UI,Arial" fill="#a8b3c2">4</text></g>
<g transform="translate(224,0)"><rect width="48" height="120" rx="8" fill="#232a33" stroke="#394655"/><rect x="8" y="8" width="18" height="90" fill="#1f2630" stroke="#000" stroke-opacity="0.2"/><rect x="30" y="8" width="4" height="90" fill="#22bb22"/><text x="18" y="112" font-size="12" font-family="Inter,Segoe UI,Arial" fill="#a8b3c2">5</text></g>
<g transform="translate(280,0)"><rect width="48" height="120" rx="8" fill="#232a33" stroke="#394655"/><rect x="8" y="8" width="18" height="90" fill="#1f2630" stroke="#000" stroke-opacity="0.2"/><rect x="30" y="8" width="4" height="90" fill="#22bb22"/><text x="18" y="112" font-size="12" font-family="Inter,Segoe UI,Arial" fill="#a8b3c2">6</text></g>
    </g>
  </g>
</svg>
